<svg width="24" height="24" viewBox="0 0 24 24" fill="none" xmlns="http://www.w3.org/2000/svg">
<g clip-path="url(#clip0_1781_5242)">
<path d="M19.5 3H4.5C2.019 3 0 5.019 0 7.5V16.5C0 18.981 2.019 21 4.5 21H19.5C21.981 21 24 18.981 24 16.5V7.5C24 5.019 21.981 3 19.5 3ZM23 16.5C23 18.43 21.43 20 19.5 20H4.5C2.57 20 1 18.43 1 16.5V7.5C1 5.57 2.57 4 4.5 4H19.5C21.43 4 23 5.57 23 7.5V16.5ZM19.5 7H4.5C4.224 7 4 7.224 4 7.5V11.5C4 11.776 4.224 12 4.5 12H19.5C19.776 12 20 11.776 20 11.5V7.5C20 7.224 19.776 7 19.5 7ZM19 11H5V8H19V11ZM7 14.5C7 14.776 6.776 15 6.5 15H4.5C4.224 15 4 14.776 4 14.5C4 14.224 4.224 14 4.5 14H6.5C6.776 14 7 14.224 7 14.5ZM12 14.5C12 14.776 11.776 15 11.5 15H9.5C9.224 15 9 14.776 9 14.5C9 14.224 9.224 14 9.5 14H11.5C11.776 14 12 14.224 12 14.5ZM17 14.5C17 14.776 16.776 15 16.5 15H14.5C14.224 15 14 14.776 14 14.5C14 14.224 14.224 14 14.5 14H16.5C16.776 14 17 14.224 17 14.5Z" fill="black"/>
</g>
<defs>
<clipPath id="clip0_1781_5242">
<rect width="24" height="24" fill="white"/>
</clipPath>
</defs>
</svg>
