<svg width="25" height="24" viewBox="0 0 25 24" fill="none" xmlns="http://www.w3.org/2000/svg">
<path d="M22.1094 10.7231L17.8813 14.4131L19.1479 19.9069C19.2149 20.1941 19.1958 20.4946 19.0929 20.771C18.99 21.0474 18.8079 21.2874 18.5694 21.4608C18.3309 21.6343 18.0466 21.7336 17.752 21.7464C17.4573 21.7591 17.1655 21.6847 16.9129 21.5325L12.1213 18.6262L7.34007 21.5325C7.08748 21.6847 6.79562 21.7591 6.50098 21.7464C6.20634 21.7336 5.922 21.6343 5.6835 21.4608C5.445 21.2874 5.26293 21.0474 5.16005 20.771C5.05717 20.4946 5.03805 20.1941 5.10507 19.9069L6.36976 14.4187L2.14069 10.7231C1.91702 10.5302 1.75527 10.2755 1.67575 9.99107C1.59622 9.7066 1.60246 9.40498 1.69367 9.12404C1.78488 8.84309 1.95701 8.59533 2.18847 8.41182C2.41993 8.22832 2.70042 8.11723 2.99476 8.0925L8.56913 7.60968L10.7451 2.41968C10.8587 2.14735 11.0504 1.91473 11.2959 1.75111C11.5415 1.58749 11.83 1.50018 12.1251 1.50018C12.4202 1.50018 12.7086 1.58749 12.9542 1.75111C13.1998 1.91473 13.3914 2.14735 13.5051 2.41968L15.6876 7.60968L21.2601 8.0925C21.5544 8.11723 21.8349 8.22832 22.0664 8.41182C22.2978 8.59533 22.4699 8.84309 22.5612 9.12404C22.6524 9.40498 22.6586 9.7066 22.5791 9.99107C22.4996 10.2755 22.3378 10.5302 22.1141 10.7231H22.1094Z" fill="black"/>
</svg>
