<svg width="430" height="423" viewBox="0 0 430 423" fill="none" xmlns="http://www.w3.org/2000/svg">
<path d="M430 323.509H0V323.72H430V323.509Z" fill="#EBEBEB"/>
<path d="M203.832 285.779H37.7669C35.0605 285.779 32.858 283.612 32.858 280.95V51.3183C32.858 48.656 35.0605 46.4894 37.7669 46.4894H203.832C206.538 46.4894 208.74 48.656 208.74 51.3183V280.95C208.74 283.612 206.538 285.779 203.832 285.779ZM37.7669 46.7017C35.1783 46.7017 33.073 48.7727 33.073 51.3192V280.951C33.073 283.497 35.1783 285.568 37.7669 285.568H203.832C206.42 285.568 208.525 283.497 208.525 280.951V51.3183C208.525 48.7727 206.42 46.7009 203.832 46.7009L37.7669 46.7017Z" fill="#EBEBEB"/>
<path d="M389.847 285.779H223.782C221.076 285.779 218.874 283.612 218.874 280.95V51.3183C218.874 48.656 221.077 46.4894 223.782 46.4894H389.847C392.554 46.4894 394.755 48.656 394.755 51.3183V280.95C394.756 283.612 392.554 285.779 389.847 285.779ZM223.782 46.7017C221.195 46.7017 219.089 48.7727 219.089 51.3192V280.951C219.089 283.497 221.195 285.568 223.782 285.568H389.847C392.435 285.568 394.54 283.497 394.54 280.951V51.3183C394.54 48.7727 392.435 46.7009 389.847 46.7009L223.782 46.7017Z" fill="#EBEBEB"/>
<path d="M386.915 337.126H364.557V337.337H386.915V337.126Z" fill="#EBEBEB"/>
<path d="M306.183 339.422H267.46V339.633H306.183V339.422Z" fill="#EBEBEB"/>
<path d="M363.697 329.27H311.416V329.481H363.697V329.27Z" fill="#EBEBEB"/>
<path d="M61.6568 330.691H45.1147V330.903H61.6568V330.691Z" fill="#EBEBEB"/>
<path d="M116.865 330.691H69.3135V330.903H116.865V330.691Z" fill="#EBEBEB"/>
<path d="M209.955 334.264H145.914V334.475H209.955V334.264Z" fill="#EBEBEB"/>
<path d="M57.9984 261.433H39.7646V323.509H57.9984V261.433Z" fill="#FAFAFA"/>
<path d="M73.966 275.05H55.7323V323.509H73.966V275.05Z" fill="#FAFAFA"/>
<path d="M85.625 235.116H67.3912V323.509H85.625V235.116Z" fill="#FAFAFA"/>
<path d="M97.7424 163.45H79.5087V323.509H97.7424V163.45Z" fill="#FAFAFA"/>
<path d="M142.841 175.908H93.9128V323.509H142.841V175.908Z" fill="#FAFAFA"/>
<path d="M333.056 323.509H353.887V281.024H333.056V323.509Z" fill="#FAFAFA"/>
<path d="M314.812 323.509H335.644V290.342H314.812V323.509Z" fill="#FAFAFA"/>
<path d="M301.491 323.509H322.323V263.011H301.491V323.509Z" fill="#FAFAFA"/>
<path d="M287.648 323.509H308.479V213.961H287.648V323.509Z" fill="#FAFAFA"/>
<path d="M298.85 189.684H234.924V323.509H298.85V189.684Z" fill="#F0F0F0"/>
<path d="M292.762 195.293H289.718V211.579H292.762V195.293Z" fill="#F5F5F5"/>
<path d="M292.762 220.76H289.718V237.046H292.762V220.76Z" fill="#F5F5F5"/>
<path d="M292.762 246.227H289.718V262.513H292.762V246.227Z" fill="#F5F5F5"/>
<path d="M292.762 271.695H289.718V287.98H292.762V271.695Z" fill="#F5F5F5"/>
<path d="M292.762 297.162H289.718V313.447H292.762V297.162Z" fill="#F5F5F5"/>
<path d="M281.976 195.293H278.932V211.579H281.976V195.293Z" fill="#F5F5F5"/>
<path d="M281.976 220.76H278.932V237.046H281.976V220.76Z" fill="#F5F5F5"/>
<path d="M281.976 246.227H278.932V262.513H281.976V246.227Z" fill="#F5F5F5"/>
<path d="M281.976 271.695H278.932V287.98H281.976V271.695Z" fill="#F5F5F5"/>
<path d="M281.976 297.162H278.932V313.447H281.976V297.162Z" fill="#F5F5F5"/>
<path d="M271.19 195.293H268.145V211.579H271.19V195.293Z" fill="#F5F5F5"/>
<path d="M271.19 220.76H268.145V237.046H271.19V220.76Z" fill="#F5F5F5"/>
<path d="M271.19 246.227H268.145V262.513H271.19V246.227Z" fill="#F5F5F5"/>
<path d="M271.19 271.695H268.145V287.98H271.19V271.695Z" fill="#F5F5F5"/>
<path d="M271.19 297.162H268.145V313.447H271.19V297.162Z" fill="#F5F5F5"/>
<path d="M260.404 195.293H257.359V211.579H260.404V195.293Z" fill="#F5F5F5"/>
<path d="M260.404 220.76H257.359V237.046H260.404V220.76Z" fill="#F5F5F5"/>
<path d="M260.404 246.227H257.359V262.513H260.404V246.227Z" fill="#F5F5F5"/>
<path d="M260.404 271.695H257.359V287.98H260.404V271.695Z" fill="#F5F5F5"/>
<path d="M260.404 297.162H257.359V313.447H260.404V297.162Z" fill="#F5F5F5"/>
<path d="M249.618 195.293H246.573V211.579H249.618V195.293Z" fill="#F5F5F5"/>
<path d="M249.618 220.76H246.573V237.046H249.618V220.76Z" fill="#F5F5F5"/>
<path d="M249.618 246.227H246.573V262.513H249.618V246.227Z" fill="#F5F5F5"/>
<path d="M249.618 271.695H246.573V287.98H249.618V271.695Z" fill="#F5F5F5"/>
<path d="M249.618 297.162H246.573V313.447H249.618V297.162Z" fill="#F5F5F5"/>
<path opacity="0.5" d="M234.924 189.684H248.095L253.823 323.509H234.924V189.684Z" fill="#E0E0E0"/>
<path d="M203.5 137.974L241.41 145.031V323.509H203.5V137.974Z" fill="#F0F0F0"/>
<path d="M203.5 137.974H173.172V323.509H203.5V137.974Z" fill="#E6E6E6"/>
<path d="M173.171 154.298H241.41V153.347H173.171V154.298Z" fill="#E0E0E0"/>
<path d="M173.171 164.4H241.41V163.45H173.171V164.4Z" fill="#E0E0E0"/>
<path d="M173.171 174.502H241.41V173.552H173.171V174.502Z" fill="#E0E0E0"/>
<path d="M173.171 184.605H241.41V183.655H173.171V184.605Z" fill="#E0E0E0"/>
<path d="M173.171 194.707H241.41V193.757H173.171V194.707Z" fill="#E0E0E0"/>
<path d="M173.171 204.809H241.41V203.859H173.171V204.809Z" fill="#E0E0E0"/>
<path d="M173.171 214.912H241.41V213.962H173.171V214.912Z" fill="#E0E0E0"/>
<path d="M173.171 225.014H241.41V224.064H173.171V225.014Z" fill="#E0E0E0"/>
<path d="M173.171 235.116H241.41V234.166H173.171V235.116Z" fill="#E0E0E0"/>
<path d="M173.171 245.218H241.41V244.268H173.171V245.218Z" fill="#E0E0E0"/>
<path d="M173.171 255.321H241.41V254.371H173.171V255.321Z" fill="#E0E0E0"/>
<path d="M173.171 265.423H241.41V264.473H173.171V265.423Z" fill="#E0E0E0"/>
<path d="M173.171 275.525H241.41V274.575H173.171V275.525Z" fill="#E0E0E0"/>
<path d="M173.171 285.627H241.41V284.677H173.171V285.627Z" fill="#E0E0E0"/>
<path d="M173.171 295.73H241.41V294.78H173.171V295.73Z" fill="#E0E0E0"/>
<path d="M173.171 305.832H241.41V304.882H173.171V305.832Z" fill="#E0E0E0"/>
<path d="M173.171 315.934H241.41V314.984H173.171V315.934Z" fill="#E0E0E0"/>
<path d="M156.584 98.5429H124.875V323.509H156.584V98.5429Z" fill="#F0F0F0"/>
<path d="M156.584 98.5429H124.875L136.544 78.678H181.951L156.584 98.5429Z" fill="#FAFAFA"/>
<path d="M156.584 98.5429L181.951 78.678V323.509H156.584V98.5429Z" fill="#EBEBEB"/>
<path d="M181.951 109.025H124.875V110.223H181.951V109.025Z" fill="#E0E0E0"/>
<path d="M181.951 121.759H124.875V122.957H181.951V121.759Z" fill="#E0E0E0"/>
<path d="M181.951 134.492H124.875V135.69H181.951V134.492Z" fill="#E0E0E0"/>
<path d="M181.951 147.226H124.875V148.424H181.951V147.226Z" fill="#E0E0E0"/>
<path d="M181.951 159.96H124.875V161.158H181.951V159.96Z" fill="#E0E0E0"/>
<path d="M181.951 172.693H124.875V173.891H181.951V172.693Z" fill="#E0E0E0"/>
<path d="M181.951 185.427H124.875V186.625H181.951V185.427Z" fill="#E0E0E0"/>
<path d="M181.951 198.16H124.875V199.358H181.951V198.16Z" fill="#E0E0E0"/>
<path d="M181.951 210.894H124.875V212.092H181.951V210.894Z" fill="#E0E0E0"/>
<path d="M181.951 223.628H124.875V224.826H181.951V223.628Z" fill="#E0E0E0"/>
<path d="M181.951 236.361H124.875V237.559H181.951V236.361Z" fill="#E0E0E0"/>
<path d="M181.951 249.095H124.875V250.293H181.951V249.095Z" fill="#E0E0E0"/>
<path d="M181.951 261.829H124.875V263.027H181.951V261.829Z" fill="#E0E0E0"/>
<path d="M181.951 274.562H124.875V275.76H181.951V274.562Z" fill="#E0E0E0"/>
<path d="M181.951 287.297H124.875V288.494H181.951V287.297Z" fill="#E0E0E0"/>
<path d="M181.951 300.03H124.875V301.228H181.951V300.03Z" fill="#E0E0E0"/>
<path d="M181.951 312.764H124.875V313.962H181.951V312.764Z" fill="#E0E0E0"/>
<path d="M119.364 207.403H84.7495V323.509H119.364V207.403Z" fill="#F0F0F0"/>
<path d="M97.119 213.404H91.5634V232.039H97.119V213.404Z" fill="#E6E6E6"/>
<path d="M110.747 213.404H105.191V232.039H110.747V213.404Z" fill="#E6E6E6"/>
<path d="M97.119 237.536H91.5634V256.17H97.119V237.536Z" fill="#E6E6E6"/>
<path d="M110.747 237.536H105.191V256.17H110.747V237.536Z" fill="#E6E6E6"/>
<path d="M97.119 261.669H91.5634V280.303H97.119V261.669Z" fill="#E6E6E6"/>
<path d="M110.747 261.669H105.191V280.303H110.747V261.669Z" fill="#E6E6E6"/>
<path d="M97.119 285.801H91.5634V304.435H97.119V285.801Z" fill="#E6E6E6"/>
<path d="M110.747 285.801H105.191V304.435H110.747V285.801Z" fill="#E6E6E6"/>
<path d="M119.364 207.403H84.7495L92.8688 199.358H127.483L119.364 207.403Z" fill="white"/>
<path d="M119.364 207.403L127.483 199.358L135.602 207.403V323.509H119.364V207.403Z" fill="#E6E6E6"/>
<path d="M215 361.717C307.09 361.717 381.745 357.428 381.745 352.137C381.745 346.847 307.09 342.558 215 342.558C122.91 342.558 48.2555 346.847 48.2555 352.137C48.2555 357.428 122.91 361.717 215 361.717Z" fill="#F5F5F5"/>
<path d="M248.898 96.9372H358.577C362.989 96.9372 366.566 100.456 366.566 104.796V344.279C366.566 348.619 362.989 352.137 358.577 352.137H248.898C244.486 352.137 240.909 348.619 240.909 344.279V104.796C240.909 100.456 244.486 96.9372 248.898 96.9372Z" fill="#D07A09"/>
<path d="M243.932 96.9372H353.611C358.023 96.9372 361.6 100.456 361.6 104.796V344.279C361.6 348.619 358.023 352.137 353.611 352.137H243.932C239.52 352.137 235.944 348.619 235.944 344.279V104.796C235.944 100.456 239.52 96.9372 243.932 96.9372Z" fill="#D07A09"/>
<path opacity="0.7" d="M243.932 96.9372H353.611C358.023 96.9372 361.6 100.456 361.6 104.796V344.279C361.6 348.619 358.023 352.137 353.611 352.137H243.932C239.52 352.137 235.944 348.619 235.944 344.279V104.796C235.944 100.456 239.52 96.9372 243.932 96.9372Z" fill="white"/>
<g opacity="0.9">
<path d="M261.159 96.9372H254.358V352.137H261.159V96.9372Z" fill="white"/>
<path d="M333.139 96.9372H328.968V352.137H333.139V96.9372Z" fill="white"/>
<path d="M235.944 152.367V159.057L361.599 151.396V144.706L235.944 152.367Z" fill="white"/>
<path d="M235.944 310.456V317.146H361.599V310.456H235.944Z" fill="white"/>
<path d="M235.944 185.769V189.413H361.599V185.769H235.944Z" fill="white"/>
<path d="M235.944 272.041V279.702L361.6 237.877V230.215L235.944 272.041Z" fill="white"/>
<path d="M279.981 96.9372H273.18L291.461 352.137H298.262L279.981 96.9372Z" fill="white"/>
</g>
<path d="M339.695 325.959H190.102V280.087H321.969L334.272 289.923C337.702 292.665 339.694 296.782 339.694 301.13L339.695 325.959Z" fill="#D07A09"/>
<path opacity="0.5" d="M339.695 325.959H190.102V280.087H321.969L334.272 289.923C337.702 292.665 339.694 296.782 339.694 301.13L339.695 325.959Z" fill="black"/>
<path d="M189.242 321.823C189.242 305.08 196.959 291.508 206.477 291.508H188.194C178.675 291.508 170.958 305.08 170.958 321.823C170.958 338.565 178.675 352.137 188.194 352.137H206.477C196.959 352.137 189.242 338.565 189.242 321.823Z" fill="#263238"/>
<path d="M206.477 352.137C215.996 352.137 223.713 338.565 223.713 321.823C223.713 305.08 215.996 291.508 206.477 291.508C196.959 291.508 189.242 305.08 189.242 321.823C189.242 338.565 196.959 352.137 206.477 352.137Z" fill="#263238"/>
<path d="M207.864 345.462C214.612 345.462 220.083 334.878 220.083 321.823C220.083 308.767 214.612 298.184 207.864 298.184C201.115 298.184 195.645 308.767 195.645 321.823C195.645 334.878 201.115 345.462 207.864 345.462Z" fill="white"/>
<path d="M89.9009 321.823C89.9009 305.08 97.6168 291.508 107.136 291.508H88.8526C79.3341 291.508 71.6173 305.08 71.6173 321.823C71.6173 338.565 79.3341 352.137 88.8526 352.137H107.136C97.6177 352.137 89.9009 338.565 89.9009 321.823Z" fill="#263238"/>
<path d="M107.136 352.137C116.655 352.137 124.371 338.565 124.371 321.823C124.371 305.08 116.655 291.508 107.136 291.508C97.6174 291.508 89.9009 305.08 89.9009 321.823C89.9009 338.565 97.6174 352.137 107.136 352.137Z" fill="#263238"/>
<path d="M307.349 321.823C307.349 305.08 315.066 291.508 324.585 291.508H306.301C296.782 291.508 289.066 305.08 289.066 321.823C289.066 338.565 296.782 352.137 306.301 352.137H324.585C315.065 352.137 307.349 338.565 307.349 321.823Z" fill="#263238"/>
<path d="M324.584 352.137C334.102 352.137 341.819 338.565 341.819 321.823C341.819 305.08 334.102 291.508 324.584 291.508C315.065 291.508 307.348 305.08 307.348 321.823C307.348 338.565 315.065 352.137 324.584 352.137Z" fill="#263238"/>
<path d="M325.97 345.462C332.718 345.462 338.189 334.878 338.189 321.823C338.189 308.767 332.718 298.184 325.97 298.184C319.222 298.184 313.751 308.767 313.751 321.823C313.751 334.878 319.222 345.462 325.97 345.462Z" fill="white"/>
<path d="M168.875 330.283H146.768L145.533 329.068C144.258 327.814 142.53 327.11 140.728 327.11H85.4685C83.6668 327.11 81.9382 327.814 80.6637 329.068L79.9129 329.806H77.8971C71.3413 329.806 66.0273 324.579 66.0273 318.13V300.202H191.439L181.448 321.542C179.562 326.781 174.525 330.283 168.875 330.283Z" fill="#FFAE48"/>
<path opacity="0.2" d="M168.875 330.283H146.768L145.533 329.068C144.258 327.814 142.53 327.11 140.728 327.11H85.4685C83.6668 327.11 81.9382 327.814 80.6637 329.068L79.9129 329.806H77.8971C71.3413 329.806 66.0273 324.579 66.0273 318.13V300.202H191.439L181.448 321.542C179.562 326.781 174.525 330.283 168.875 330.283Z" fill="black"/>
<path d="M299.418 223.922C299.344 223.922 299.269 223.904 299.201 223.864C298.996 223.747 298.926 223.488 299.046 223.286L305.066 213.134C305.186 212.931 305.449 212.863 305.654 212.981C305.859 213.099 305.929 213.358 305.809 213.56L299.789 223.712C299.709 223.847 299.565 223.922 299.418 223.922Z" fill="#263238"/>
<path d="M331.169 274.423V262.884C331.169 256.821 322.208 228.198 309.881 222.841C297.555 217.483 267.741 215.085 248.965 216.073C230.188 217.06 205.139 255.693 205.139 255.693L207.864 288.923C211.679 288.923 223.837 287.795 225.621 320.67C225.882 325.471 229.895 329.248 234.783 329.248H300.536C305.106 329.248 308.978 325.945 309.619 321.494C311.305 309.779 315.827 288.917 326.651 288.917C334.248 288.917 339.695 295.314 339.695 302.646C339.695 294.589 337.704 286.653 333.892 279.521L331.169 274.423Z" fill="#FFAE48"/>
<path d="M180.165 216.073C145.956 216.073 107.208 255.693 107.208 255.693H205.139C205.139 255.693 230.188 217.059 248.965 216.073H180.165Z" fill="#FFAE48"/>
<path opacity="0.4" d="M182.262 216.073C153.446 216.073 123.229 244.185 114.418 253.05C113.437 254.035 114.146 255.693 115.548 255.693H194.547C200.984 255.693 207.048 252.696 210.855 247.591C219.346 236.205 235.717 216.769 248.964 216.073H182.262Z" fill="white"/>
<path d="M205.139 255.693L168.961 283.775L71.6173 283.47C71.6173 283.47 66.0273 291.461 66.0273 300.202C72.0955 300.202 184.369 300.202 191.44 300.202C193.495 294.845 200.697 288.923 207.864 288.923C207.864 278.958 205.139 255.693 205.139 255.693Z" fill="#FFAE48"/>
<path opacity="0.2" d="M181.463 275.499C181.254 275.499 181.07 275.348 181.039 275.139C181.002 274.909 181.164 274.693 181.399 274.658C192.065 273.068 200.052 267.938 204.876 263.915C207.609 261.637 208.145 257.731 206.123 254.829C205.989 254.637 206.038 254.374 206.235 254.242C206.431 254.11 206.698 254.159 206.832 254.352C209.105 257.612 208.502 262.001 205.432 264.561C200.524 268.655 192.393 273.875 181.528 275.495C181.506 275.497 181.484 275.499 181.463 275.499Z" fill="black"/>
<path d="M71.6173 283.47C71.6173 283.47 88.7176 263.871 107.208 255.693H205.138L168.96 283.775L71.6173 283.47Z" fill="#FFAE48"/>
<path d="M147.341 283.47H83.1276V285.303H147.341V283.47Z" fill="#263238"/>
<path d="M146.013 279.796L149.465 276.399C150.239 275.638 151.219 275.112 152.288 274.882L178.273 269.316C179.186 269.12 180.134 269.148 181.034 269.397L182.422 269.781C186.463 270.899 187.938 275.78 185.173 278.887L179.588 285.166C178.625 286.25 177.274 286.928 175.817 287.061L150.577 289.361C148.889 289.515 147.221 288.923 146.02 287.747C143.783 285.555 143.779 281.993 146.013 279.796Z" fill="white"/>
<path d="M84.9456 281.59L82.0912 276.356C81.6905 275.622 81.0954 275.008 80.3687 274.579C78.966 273.753 77.2271 273.704 75.7788 274.451L73.6211 275.564C72.5547 276.114 71.7437 277.046 71.3567 278.168L70.0349 282C69.1087 284.684 70.839 287.548 73.6787 288.03L79.6187 289.039C81.6062 289.377 83.5911 288.427 84.5474 286.68L84.9413 285.96C85.6886 284.596 85.6903 282.955 84.9456 281.59Z" fill="white"/>
<path opacity="0.4" d="M225.143 256.821H315.681C318.98 256.821 321.337 253.696 320.392 250.586C318.332 243.811 314.363 233.235 308.43 227.837C307.772 227.238 306.958 226.837 306.081 226.654C295.41 224.429 278.251 222.947 265.522 222.088C253.847 221.299 242.411 225.574 234.213 233.791C229.895 238.119 225.239 243.42 221.153 249.469C219.029 252.613 221.305 256.821 225.143 256.821Z" fill="white"/>
<path d="M166.596 310.119C166.596 312.896 163.708 315.149 160.146 315.149C156.584 315.149 153.696 312.897 153.696 310.119C153.696 307.342 156.584 305.09 160.146 305.09C163.708 305.09 166.596 307.342 166.596 310.119Z" fill="#263238"/>
<path d="M114.631 279.631C116.748 279.631 117.78 281.76 116.938 284.387C116.096 287.014 113.696 289.143 111.58 289.143C109.463 289.143 108.431 287.014 109.273 284.387C110.116 281.76 112.515 279.631 114.631 279.631Z" fill="#263238"/>
<path d="M71.2311 310.119C71.2311 312.896 70.4184 315.149 69.4157 315.149C68.4129 315.149 67.6002 312.897 67.6002 310.119C67.6002 307.342 68.4129 305.09 69.4157 305.09C70.4184 305.09 71.2311 307.342 71.2311 310.119Z" fill="#263238"/>
<path d="M222.352 256.017V253.165C222.352 249.673 225.615 247.064 229.09 247.776L240.114 250.037C242.709 250.569 244.568 252.819 244.568 255.426V256.016C244.568 259.056 242.063 261.521 238.972 261.521H227.948C224.858 261.521 222.352 259.057 222.352 256.017Z" fill="#263238"/>
<path d="M280.361 223.268C280.361 223.268 278.89 223.123 276.324 222.901C287.665 245.754 284.774 256.822 284.774 256.822H293.422C293.509 242.909 280.361 223.268 280.361 223.268Z" fill="#263238"/>
<path opacity="0.2" d="M184.765 246.595C184.394 250.317 181.225 253.155 177.423 253.155H132.856C129.604 253.155 128.426 249.59 130.778 246.928C135.302 241.811 140.173 237.329 144.59 233.664C152.981 226.714 163.405 223.1 173.148 223.765C174.335 223.847 175.569 223.935 176.836 224.031C180.095 224.275 182.804 226.614 183.487 229.759C185.087 237.128 185.15 242.726 184.765 246.595Z" fill="#F7A571"/>
<path opacity="0.2" d="M285.801 323.232C285.564 323.232 285.371 323.043 285.371 322.809C285.371 314.248 289.807 278.947 290.972 273.652C292.099 268.517 292.102 262.788 290.979 259.056C290.912 258.832 291.041 258.597 291.27 258.531C291.497 258.467 291.736 258.593 291.804 258.817C292.966 262.674 292.968 268.567 291.812 273.831C290.652 279.107 286.232 314.281 286.232 322.81C286.231 323.043 286.039 323.232 285.801 323.232Z" fill="black"/>
<path opacity="0.2" d="M284.66 274.07H274.173C273.299 274.07 272.711 273.367 272.865 272.508L273.08 271.309C273.235 270.449 274.076 269.746 274.95 269.746H285.437C286.31 269.746 286.899 270.449 286.745 271.309L286.53 272.508C286.376 273.367 285.534 274.07 284.66 274.07Z" fill="black"/>
<path d="M316.377 145.917H315.517C315.517 143.754 315.201 141.614 314.578 139.558L315.402 139.317C316.049 141.451 316.377 143.672 316.377 145.917ZM312.668 135.101C308.655 128.012 301.054 123.609 292.832 123.609V122.763C301.366 122.763 309.254 127.333 313.418 134.69L312.668 135.101Z" fill="#D07A09"/>
<path d="M292.833 125.725C281.497 125.725 272.307 134.765 272.307 145.916C272.307 165.366 292.833 178.707 292.833 178.707C292.833 178.707 313.368 165.366 313.368 145.916C313.367 134.765 304.177 125.725 292.833 125.725ZM292.833 155.431C287.542 155.431 283.251 151.211 283.251 146.006C283.251 140.793 287.542 136.581 292.833 136.581C298.132 136.581 302.422 140.792 302.422 146.006C302.422 151.211 298.132 155.431 292.833 155.431Z" fill="#F8A435"/>
<path d="M256.258 350.851L261.449 350.77L262.948 338.926L257.756 339.007L256.258 350.851Z" fill="#F7A571"/>
<path d="M281.046 350.477L286.09 348.956L282.961 337.732L277.917 339.252L281.046 350.477Z" fill="#F7A571"/>
<path d="M285.934 347.469L280.311 350.324C280.123 350.419 280.027 350.631 280.08 350.833L281.285 355.328C281.41 355.795 281.953 356.021 282.384 355.792C284.177 354.843 285.442 354.069 287.721 352.911C289.123 352.2 293.426 350.197 295.362 349.214C297.256 348.253 296.562 346.22 295.681 346.451C291.726 347.491 288.495 347.796 286.829 347.368C286.529 347.291 286.21 347.33 285.934 347.469Z" fill="#263238"/>
<path d="M261.555 350.18L255.888 350.267C255.675 350.27 255.494 350.418 255.452 350.622L254.499 355.176C254.4 355.648 254.771 356.088 255.26 356.073C257.304 356.007 260.257 355.844 262.825 355.804C265.83 355.757 266.702 355.879 270.225 355.824C272.355 355.791 272.913 353.663 272.018 353.485C267.944 352.674 266.353 352.631 262.811 350.558C262.427 350.333 262.003 350.173 261.555 350.18Z" fill="#263238"/>
<path d="M269.439 195.472C270.616 197.795 271.945 200.258 273.28 202.598C274.63 204.953 276.026 207.275 277.532 209.47C277.918 210.006 278.28 210.574 278.677 211.094L279.642 212.395C279.847 212.651 279.957 212.773 279.986 212.832C280.014 212.887 280.039 212.97 280.289 212.987C280.782 213.022 281.819 212.512 282.745 211.804C283.217 211.447 283.695 211.041 284.172 210.613C284.635 210.192 285.115 209.684 285.524 209.279L288.92 211.161C288.611 211.972 288.287 212.628 287.901 213.338C287.525 214.036 287.091 214.717 286.581 215.381C286.077 216.051 285.487 216.693 284.772 217.312C284.059 217.93 283.184 218.508 282.046 218.913C280.928 219.325 279.47 219.463 278.123 219.123C276.771 218.798 275.657 218.112 274.837 217.396C274.607 217.215 274.443 217.034 274.249 216.848L273.97 216.568L273.772 216.348L273.017 215.496C272.507 214.931 272.046 214.346 271.563 213.766C269.696 211.423 268.029 208.989 266.488 206.493C265.73 205.24 264.981 203.983 264.298 202.691C263.602 201.388 262.938 200.142 262.298 198.722L269.439 195.472Z" fill="#F7A571"/>
<path d="M260.129 195.503C258.73 200.186 268.581 212.955 268.581 212.955L278.515 206.667C278.515 206.667 275.596 200.152 271.632 195.184C267.561 190.083 261.665 190.363 260.129 195.503Z" fill="#F78034"/>
<g opacity="0.2">
<path d="M260.129 195.503C258.73 200.186 268.581 212.955 268.581 212.955L278.515 206.667C278.515 206.667 275.596 200.152 271.632 195.184C267.561 190.083 261.665 190.363 260.129 195.503Z" fill="black"/>
</g>
<path opacity="0.2" d="M266.185 201.001C268.228 201.86 271.235 206.701 272.8 210.288L268.584 212.953C268.584 212.953 264.788 208.036 262.247 203.183C263.579 201.746 265.104 200.549 266.185 201.001Z" fill="black"/>
<path d="M284.937 210.2L288.533 204.48L291.666 209.408C291.666 209.408 290.517 211.568 288.204 212.189L284.937 210.2Z" fill="#F7A571"/>
<path d="M293.542 204.541L293.53 206.31C293.526 206.861 293.331 207.394 292.979 207.821L291.666 209.409L288.533 204.481L291.773 203.316C292.636 203.004 293.548 203.637 293.542 204.541Z" fill="#F7A571"/>
<path d="M290.038 211.849L284.38 211.764L287.511 200.233L293.17 200.318L290.038 211.849Z" fill="#F78034"/>
<path d="M290.611 211.849L284.952 211.764L288.084 200.233L293.742 200.318L290.611 211.849Z" fill="#263238"/>
<path opacity="0.2" d="M262.946 338.93L262.174 345.034L256.981 345.115L257.751 339.01L262.946 338.93Z" fill="black"/>
<path opacity="0.2" d="M277.917 339.255L282.962 337.734L284.573 343.521L279.527 345.042L277.917 339.255Z" fill="black"/>
<path d="M238.181 197.979C242.418 215.936 241.495 233.737 241.961 237.578C246.021 237.288 261.312 236.167 269.648 235.554C272.303 206.375 266.011 191.562 266.011 191.562C266.011 191.562 264.231 191.222 261.81 190.978C261.05 190.902 260.232 190.834 259.379 190.79C258.908 190.762 258.43 190.747 257.945 190.737C254.813 190.687 249.698 191.176 246.174 191.6C245.436 191.691 244.685 191.8 243.959 191.917C243.285 192.03 242.623 192.15 242.001 192.273C241.972 192.279 241.944 192.284 241.916 192.29C239.267 192.812 237.571 195.392 238.181 197.979Z" fill="#F78034"/>
<g opacity="0.2">
<path d="M238.181 197.979C242.418 215.936 241.495 233.737 241.961 237.578C246.021 237.288 261.312 236.167 269.648 235.554C272.303 206.375 266.011 191.562 266.011 191.562C266.011 191.562 264.231 191.222 261.81 190.978C261.05 190.902 260.232 190.834 259.379 190.79C258.908 190.762 258.43 190.747 257.945 190.737C254.813 190.687 249.698 191.176 246.174 191.6C245.436 191.691 244.685 191.8 243.959 191.917C243.285 192.03 242.623 192.15 242.001 192.273C241.972 192.279 241.944 192.284 241.916 192.29C239.267 192.812 237.571 195.392 238.181 197.979Z" fill="black"/>
</g>
<path opacity="0.2" d="M242.904 201.755L239.728 205.775C239.736 205.828 239.746 205.871 239.746 205.923C240.188 208.646 240.533 211.318 240.79 213.886C243.824 210.187 243.372 203.512 242.904 201.755Z" fill="black"/>
<path d="M247.551 183.634C248.213 186.376 248.174 189.423 246.174 191.599C248.384 193.461 251.251 195.588 255.759 195.415C260.267 195.242 259.251 192.256 257.942 190.737C254.09 190.126 254.084 187.665 254.054 184.962C254.048 184.398 253.675 183.902 253.13 183.73L248.9 182.395C248.113 182.146 247.36 182.841 247.551 183.634Z" fill="#F7A571"/>
<path d="M259.753 212.913C257.434 212.913 255.291 210.172 254.871 206.668C254.613 204.507 255.091 202.516 256.149 201.341C256.758 200.666 257.519 200.307 258.351 200.305C258.353 200.305 258.355 200.305 258.358 200.305C260.677 200.305 262.821 203.046 263.24 206.55C263.499 208.711 263.021 210.702 261.961 211.876C261.352 212.552 260.591 212.911 259.759 212.913C259.758 212.913 259.755 212.913 259.753 212.913ZM258.358 201.152C258.356 201.152 258.354 201.152 258.353 201.152C257.766 201.153 257.241 201.406 256.793 201.904C255.908 202.886 255.499 204.674 255.726 206.569C256.083 209.551 257.927 212.068 259.753 212.068C259.755 212.068 259.757 212.068 259.759 212.068C260.346 212.066 260.871 211.813 261.318 211.316C262.204 210.334 262.613 208.547 262.386 206.65H262.385C262.029 203.668 260.185 201.152 258.358 201.152Z" fill="#F78034"/>
<path opacity="0.2" d="M254.058 185.117L249.802 185.656C249.9 185.839 250.015 186.022 250.13 186.196C250.935 187.467 252.731 188.302 254.553 188.606C254.093 187.623 254.076 186.396 254.058 185.117Z" fill="black"/>
<path d="M259.579 174.234C261.947 174.627 266.37 171.98 265.338 168.463C264.011 170.095 259.579 169.551 259.579 169.551V174.234Z" fill="#263238"/>
<path d="M250.343 178.001C250.601 180.349 247.652 184.535 244.145 183.313C245.879 182.107 245.591 177.723 245.591 177.723L250.343 178.001Z" fill="#263238"/>
<path d="M246.877 173.414C246.241 178.443 245.609 181.354 247.677 184.376C250.785 188.921 257.457 187.793 259.607 183.052C261.542 178.785 262.257 171.279 257.686 168.39C253.183 165.543 247.512 168.385 246.877 173.414Z" fill="#F7A571"/>
<path d="M246.175 178.47C247.424 179.763 250.853 174.482 250.226 172.596C251.516 173.147 253.994 172.088 253.839 169.985C257.702 172.015 263.294 173.625 263.384 169.949C263.476 166.272 259.944 163.567 256.486 163.277C256.898 164.365 255.806 164.836 253.565 164.365C251.324 163.894 242.664 159.987 243.623 167.809C240.408 168.02 239.98 172.053 246.175 178.47Z" fill="#263238"/>
<path d="M243.645 176.556C243.825 177.91 244.624 179.058 245.54 179.728C246.918 180.735 247.773 179.667 247.904 178.072C248.021 176.636 247.893 174.383 246.263 174.004C244.658 173.631 243.439 175.007 243.645 176.556Z" fill="#F7A571"/>
<path d="M251.446 236.888L269.646 235.557C269.646 235.557 271.997 272.298 271.82 287.88C271.639 304.083 264.103 343.825 264.103 343.825L255.316 343.957C255.316 343.957 256.009 305.411 256.009 289.5C256.01 268.07 251.446 236.888 251.446 236.888Z" fill="#263238"/>
<path opacity="0.2" d="M258.481 275.076C258.72 276.138 265.486 305.924 267.672 323.319C268.839 316.088 270.033 307.978 270.838 300.816L258.481 275.076Z" fill="black"/>
<path d="M259.827 236.275C259.827 236.275 273.673 269.662 276.801 284.303C280.226 300.336 285.697 340.884 285.697 340.884L276.305 342.329C276.305 342.329 269.186 312.016 265.209 296.528C260.68 278.886 242.745 250.938 241.963 237.583C259.827 236.275 259.827 236.275 259.827 236.275Z" fill="#263238"/>
<path d="M286.88 341.672L275.203 344.361L273.732 339.941L286.479 337.789L286.88 341.672Z" fill="#F8A435"/>
<path d="M265.211 344.01L254.74 344.171L254.686 340.843L266.389 340.487L265.211 344.01Z" fill="#F8A435"/>
<path d="M253.998 176.036C253.92 176.441 254.076 176.809 254.345 176.858C254.614 176.908 254.894 176.619 254.971 176.215C255.048 175.81 254.893 175.442 254.624 175.393C254.355 175.343 254.074 175.63 253.998 176.036Z" fill="#263238"/>
<path d="M259.092 177.098C259.015 177.503 259.17 177.871 259.44 177.921C259.709 177.97 259.989 177.682 260.067 177.278C260.144 176.872 259.988 176.504 259.719 176.455C259.449 176.405 259.169 176.694 259.092 177.098Z" fill="#263238"/>
<path d="M257.412 177C257.412 177 257.903 179.508 258.719 180.824C257.864 181.359 256.684 180.825 256.684 180.825L257.412 177Z" fill="#E2600D"/>
<path d="M255.812 182.068C254.245 181.718 253.608 180.57 253.58 180.516C253.548 180.457 253.571 180.384 253.63 180.353C253.691 180.321 253.765 180.343 253.796 180.403C253.804 180.416 254.549 181.75 256.374 181.91C256.441 181.916 256.492 181.975 256.486 182.041C256.48 182.108 256.419 182.157 256.352 182.151C256.16 182.134 255.981 182.107 255.812 182.068Z" fill="#263238"/>
<path d="M253.49 174.221C253.451 174.208 253.415 174.186 253.386 174.154C253.295 174.055 253.302 173.902 253.402 173.812C254.409 172.912 255.51 173.181 255.557 173.193C255.688 173.227 255.767 173.359 255.732 173.488C255.698 173.617 255.564 173.695 255.434 173.662C255.398 173.653 254.537 173.452 253.733 174.17C253.665 174.231 253.572 174.248 253.49 174.221Z" fill="#263238"/>
<path d="M261.835 175.839C261.759 175.815 261.697 175.755 261.675 175.674C261.388 174.644 260.552 174.36 260.516 174.348C260.388 174.306 260.318 174.169 260.36 174.043C260.402 173.916 260.539 173.847 260.668 173.888C260.714 173.904 261.79 174.256 262.15 175.546C262.186 175.674 262.108 175.807 261.978 175.843C261.929 175.856 261.879 175.854 261.835 175.839Z" fill="#263238"/>
<path d="M287.876 347.488C287.449 347.704 286.943 347.851 286.583 347.937C286.535 347.949 286.484 347.93 286.455 347.891C286.426 347.852 286.423 347.799 286.448 347.758C286.561 347.569 287.578 345.914 288.223 345.913C288.323 345.913 288.465 345.949 288.57 346.122C288.711 346.355 288.736 346.585 288.642 346.805C288.524 347.084 288.226 347.309 287.876 347.488ZM286.82 347.626C287.685 347.383 288.272 347.049 288.415 346.713C288.478 346.566 288.459 346.413 288.359 346.247C288.31 346.166 288.261 346.156 288.224 346.156C287.888 346.156 287.244 346.974 286.82 347.626Z" fill="#F8A435"/>
<path d="M286.61 347.928C286.59 347.939 286.566 347.943 286.542 347.94C286.497 347.936 286.458 347.908 286.44 347.867C286.415 347.809 285.839 346.444 286.149 345.741C286.229 345.558 286.362 345.432 286.542 345.366C286.819 345.265 286.971 345.389 287.037 345.471C287.4 345.927 286.998 347.39 286.655 347.887C286.644 347.905 286.628 347.918 286.61 347.928ZM286.576 345.615C286.487 345.661 286.42 345.734 286.375 345.837C286.176 346.288 286.429 347.126 286.576 347.535C286.865 346.939 287.059 345.89 286.844 345.621C286.825 345.596 286.779 345.539 286.628 345.593C286.61 345.599 286.592 345.607 286.576 345.615Z" fill="#F8A435"/>
<path d="M262.077 350.878C262.034 350.863 262.002 350.827 261.995 350.782C261.987 350.731 262.012 350.681 262.058 350.657C262.292 350.533 264.362 349.461 264.998 349.796C265.121 349.862 265.192 349.972 265.206 350.115C265.228 350.356 265.154 350.555 264.985 350.707C264.424 351.211 262.933 351.033 262.094 350.882C262.088 350.88 262.082 350.879 262.077 350.878ZM264.835 349.99C264.442 349.863 263.317 350.305 262.5 350.703C263.649 350.873 264.502 350.811 264.817 350.527C264.928 350.428 264.975 350.3 264.959 350.137C264.953 350.073 264.93 350.035 264.879 350.009C264.867 350.001 264.852 349.995 264.835 349.99Z" fill="#F8A435"/>
<path d="M262.077 350.878C262.066 350.874 262.056 350.869 262.045 350.862C262.009 350.838 261.989 350.796 261.993 350.753C261.998 350.695 262.116 349.318 262.768 348.774C262.966 348.609 263.195 348.535 263.446 348.556C263.785 348.585 263.885 348.752 263.91 348.887C264.014 349.463 262.79 350.586 262.168 350.872C262.139 350.885 262.106 350.887 262.077 350.878ZM263.551 348.82C263.519 348.81 263.478 348.802 263.426 348.797C263.239 348.781 263.077 348.835 262.928 348.959C262.499 349.316 262.327 350.141 262.267 350.543C262.9 350.156 263.73 349.275 263.668 348.929C263.663 348.908 263.654 348.853 263.551 348.82Z" fill="#F8A435"/>
<path d="M246.485 199.553C244.771 202.557 243.047 205.763 241.501 208.917C239.938 212.081 238.518 215.299 237.496 218.465C237.369 218.859 237.273 219.247 237.158 219.639C237.109 219.817 237.031 220.07 237.006 220.187C236.991 220.287 236.949 220.376 236.936 220.486C236.866 220.911 236.872 221.461 236.986 222.083C237.227 223.334 237.864 224.789 238.662 226.203C240.289 229.038 242.554 231.894 244.868 234.484L242.376 237.432C239.083 235.229 236.176 232.737 233.62 229.517C232.376 227.887 231.199 226.091 230.46 223.801C230.097 222.658 229.852 221.369 229.92 219.968C229.93 219.622 229.986 219.26 230.029 218.908C230.078 218.573 230.128 218.385 230.179 218.117C230.283 217.62 230.374 217.111 230.491 216.623C231.441 212.731 232.835 209.149 234.395 205.678C235.979 202.196 237.702 198.911 239.726 195.591L246.485 199.553Z" fill="#F7A571"/>
<path d="M241.081 192.629C236.295 193.918 231.594 207.158 231.594 207.158L243.119 210.304C243.119 210.304 245.659 207.141 247.916 201.235C250.374 194.802 246.879 191.067 241.081 192.629Z" fill="#F78034"/>
<g opacity="0.2">
<path d="M241.081 192.629C236.295 193.918 231.594 207.158 231.594 207.158L243.119 210.304C243.119 210.304 245.659 207.141 247.916 201.235C250.374 194.802 246.879 191.067 241.081 192.629Z" fill="black"/>
</g>
<path d="M242.659 233.614L247.919 234.976L245.831 239.844C245.831 239.844 241.107 238.859 241.14 236.326L242.659 233.614Z" fill="#F7A571"/>
<path d="M249.94 238.278L248.387 242.124L245.83 239.844L247.918 234.976L249.94 238.278Z" fill="#F7A571"/>
</svg>
