<svg width="33" height="37" viewBox="0 0 33 37" fill="none" xmlns="http://www.w3.org/2000/svg">
<path d="M29.96 21.805L26.25 25.5325L22.54 21.805L20.055 24.29L23.7825 28L20.055 31.71L22.54 34.195L26.25 30.4675L29.96 34.195L32.445 31.71L28.7175 28L32.445 24.29M15.75 0C13.825 0 12.25 1.575 12.25 3.5V4.0075C7.21 5.495 3.5 10.185 3.5 15.75V26.25L0 29.75V31.5H16.3625C15.9586 30.3772 15.7514 29.1932 15.75 28H7V15.75C7 13.4294 7.92187 11.2038 9.56281 9.56282C11.2038 7.92187 13.4294 7 15.75 7C18.0706 7 20.2962 7.92187 21.9372 9.56282C23.5781 11.2038 24.5 13.4294 24.5 15.75V17.6575C25.0775 17.57 25.655 17.5 26.25 17.5C26.845 17.5 27.4225 17.5525 28 17.6575V15.75C28 10.185 24.29 5.495 19.25 4.0075V3.5C19.25 2.57174 18.8812 1.6815 18.2249 1.02513C17.5685 0.368749 16.6783 0 15.75 0ZM12.25 33.25C12.2501 33.9974 12.4894 34.7251 12.933 35.3266C13.3765 35.9282 14.001 36.3719 14.7149 36.593C15.4289 36.814 16.1948 36.8007 16.9006 36.555C17.6065 36.3093 18.2151 35.8441 18.6375 35.2275C18.0775 34.6325 17.5875 33.9675 17.1675 33.25H12.25Z" fill="white"/>
</svg>
