<svg width="25" height="24" viewBox="0 0 25 24" fill="none" xmlns="http://www.w3.org/2000/svg">
<path d="M21.6556 5.46938L18.6556 2.46939C18.586 2.39965 18.5033 2.34433 18.4122 2.30659C18.3212 2.26885 18.2236 2.24942 18.125 2.24942C18.0264 2.24942 17.9288 2.26885 17.8378 2.30659C17.7467 2.34433 17.664 2.39965 17.5944 2.46939L8.59437 11.4694C8.52475 11.5391 8.46954 11.6218 8.4319 11.7129C8.39426 11.8039 8.37492 11.9015 8.375 12V15C8.375 15.1989 8.45402 15.3897 8.59467 15.5303C8.73532 15.671 8.92609 15.75 9.125 15.75H12.125C12.2235 15.7501 12.3211 15.7308 12.4121 15.6931C12.5032 15.6555 12.5859 15.6003 12.6556 15.5306L21.6556 6.53064C21.7254 6.46098 21.7807 6.37826 21.8184 6.28722C21.8562 6.19617 21.8756 6.09857 21.8756 6.00001C21.8756 5.90145 21.8562 5.80385 21.8184 5.71281C21.7807 5.62176 21.7254 5.53904 21.6556 5.46938ZM11.8147 14.25H9.875V12.3103L15.875 6.31032L17.8147 8.25001L11.8147 14.25ZM18.875 7.1897L16.9353 5.25001L18.125 4.06032L20.0647 6.00001L18.875 7.1897ZM21.125 11.25V19.5C21.125 19.8978 20.967 20.2794 20.6857 20.5607C20.4044 20.842 20.0228 21 19.625 21H4.625C4.22718 21 3.84564 20.842 3.56434 20.5607C3.28304 20.2794 3.125 19.8978 3.125 19.5V4.50001C3.125 4.10219 3.28304 3.72065 3.56434 3.43935C3.84564 3.15805 4.22718 3.00001 4.625 3.00001H12.875C13.0739 3.00001 13.2647 3.07903 13.4053 3.21968C13.546 3.36033 13.625 3.5511 13.625 3.75001C13.625 3.94892 13.546 4.13969 13.4053 4.28034C13.2647 4.42099 13.0739 4.50001 12.875 4.50001H4.625V19.5H19.625V11.25C19.625 11.0511 19.704 10.8603 19.8447 10.7197C19.9853 10.579 20.1761 10.5 20.375 10.5C20.5739 10.5 20.7647 10.579 20.9053 10.7197C21.046 10.8603 21.125 11.0511 21.125 11.25Z" fill="black"/>
</svg>
