<svg width="25" height="24" viewBox="0 0 25 24" fill="none" xmlns="http://www.w3.org/2000/svg">
<g clip-path="url(#clip0_2318_3058)">
<path d="M21.875 8.25H20.375V6C20.375 5.60218 20.217 5.22064 19.9357 4.93934C19.6544 4.65804 19.2728 4.5 18.875 4.5H4.625C4.22718 4.5 3.84564 4.65804 3.56434 4.93934C3.28304 5.22064 3.125 5.60218 3.125 6V8.25H1.625C1.42609 8.25 1.23532 8.32902 1.09467 8.46967C0.954018 8.61032 0.875 8.80109 0.875 9C0.875 9.19891 0.954018 9.38968 1.09467 9.53033C1.23532 9.67098 1.42609 9.75 1.625 9.75H3.125V12C3.125 12.3978 3.28304 12.7794 3.56434 13.0607C3.84564 13.342 4.22718 13.5 4.625 13.5H18.875C19.2728 13.5 19.6544 13.342 19.9357 13.0607C20.217 12.7794 20.375 12.3978 20.375 12V9.75H21.875V14.4375L12.4625 17.1234C12.1502 17.2139 11.8756 17.4029 11.6796 17.6622C11.4836 17.9216 11.3767 18.2374 11.375 18.5625V21.75C11.375 21.9489 11.454 22.1397 11.5947 22.2803C11.7353 22.421 11.9261 22.5 12.125 22.5C12.3239 22.5 12.5147 22.421 12.6553 22.2803C12.796 22.1397 12.875 21.9489 12.875 21.75V18.5625L22.2875 15.8738C22.5993 15.7835 22.8736 15.5949 23.0696 15.3361C23.2655 15.0773 23.3727 14.7621 23.375 14.4375V9.75C23.375 9.35218 23.217 8.97064 22.9357 8.68934C22.6544 8.40804 22.2728 8.25 21.875 8.25ZM18.875 12H4.625V6H18.875V12Z" fill="black"/>
</g>
<defs>
<clipPath id="clip0_2318_3058">
<rect width="24" height="24" fill="white" transform="translate(0.125)"/>
</clipPath>
</defs>
</svg>
