<svg width="25" height="24" viewBox="0 0 25 24" fill="none" xmlns="http://www.w3.org/2000/svg">
<path d="M12.125 2.25C10.1966 2.25 8.31157 2.82183 6.70819 3.89317C5.10482 4.96451 3.85513 6.48726 3.11718 8.26884C2.37922 10.0504 2.18614 12.0108 2.56235 13.9021C2.93855 15.7934 3.86715 17.5307 5.23071 18.8943C6.59428 20.2579 8.33156 21.1865 10.2229 21.5627C12.1142 21.9389 14.0746 21.7458 15.8562 21.0078C17.6377 20.2699 19.1605 19.0202 20.2318 17.4168C21.3032 15.8134 21.875 13.9284 21.875 12C21.8723 9.41498 20.8442 6.93661 19.0163 5.10872C17.1884 3.28084 14.71 2.25273 12.125 2.25ZM12.125 20.25C10.4933 20.25 8.89826 19.7661 7.54155 18.8596C6.18484 17.9531 5.12742 16.6646 4.503 15.1571C3.87858 13.6496 3.7152 11.9908 4.03353 10.3905C4.35185 8.79016 5.13759 7.32015 6.29137 6.16637C7.44516 5.01259 8.91517 4.22685 10.5155 3.90852C12.1159 3.59019 13.7747 3.75357 15.2821 4.37799C16.7896 5.00242 18.0781 6.05984 18.9846 7.41655C19.8911 8.77325 20.375 10.3683 20.375 12C20.3725 14.1873 19.5025 16.2843 17.9559 17.8309C16.4093 19.3775 14.3123 20.2475 12.125 20.25ZM16.625 12C16.625 12.1989 16.546 12.3897 16.4053 12.5303C16.2647 12.671 16.0739 12.75 15.875 12.75H12.875V15.75C12.875 15.9489 12.796 16.1397 12.6553 16.2803C12.5147 16.421 12.3239 16.5 12.125 16.5C11.9261 16.5 11.7353 16.421 11.5947 16.2803C11.454 16.1397 11.375 15.9489 11.375 15.75V12.75H8.375C8.17609 12.75 7.98533 12.671 7.84467 12.5303C7.70402 12.3897 7.625 12.1989 7.625 12C7.625 11.8011 7.70402 11.6103 7.84467 11.4697C7.98533 11.329 8.17609 11.25 8.375 11.25H11.375V8.25C11.375 8.05109 11.454 7.86032 11.5947 7.71967C11.7353 7.57902 11.9261 7.5 12.125 7.5C12.3239 7.5 12.5147 7.57902 12.6553 7.71967C12.796 7.86032 12.875 8.05109 12.875 8.25V11.25H15.875C16.0739 11.25 16.2647 11.329 16.4053 11.4697C16.546 11.6103 16.625 11.8011 16.625 12Z" fill="black"/>
</svg>
