<svg width="25" height="24" viewBox="0 0 25 24" fill="none" xmlns="http://www.w3.org/2000/svg">
<path d="M18.625 15H16.625M13.125 15H11.125M7.625 15H5.625" stroke="black" stroke-width="1.5" stroke-linecap="round" stroke-linejoin="round"/>
<path d="M12.125 2C9.91586 2 8.125 3.80892 8.125 6.04033C8.125 7.31626 8.625 8.30834 9.625 9.1945C10.3299 9.81911 11.1838 10.8566 11.6964 11.6975C11.9423 12.1008 12.29 12.1008 12.5536 11.6975C13.0922 10.8733 13.9201 9.81911 14.625 9.1945C15.625 8.30834 16.125 7.31626 16.125 6.04033C16.125 3.80892 14.3341 2 12.125 2Z" stroke="black" stroke-width="1.5" stroke-linejoin="round"/>
<path d="M12.125 6H12.134" stroke="black" stroke-width="2" stroke-linecap="round" stroke-linejoin="round"/>
<path d="M19.125 8C19.8995 8.14988 20.4838 8.40002 20.9534 8.81749C22.125 9.85903 22.125 11.5353 22.125 14.888C22.125 18.2406 22.125 19.9169 20.9534 20.9585C19.7819 22 17.8962 22 14.125 22H10.125C6.35376 22 4.46815 22 3.29657 20.9585C2.125 19.9169 2.125 18.2406 2.125 14.888C2.125 11.5353 2.125 9.85902 3.29657 8.81749C3.76618 8.40002 4.3505 8.14988 5.125 8" stroke="black" stroke-width="1.5" stroke-linecap="round" stroke-linejoin="round"/>
</svg>
