<svg width="25" height="24" viewBox="0 0 25 24" fill="none" xmlns="http://www.w3.org/2000/svg">
<path d="M22.5501 9.12093C22.4592 8.84098 22.2881 8.59394 22.0578 8.41057C21.8276 8.2272 21.5486 8.1156 21.2554 8.08968L15.6876 7.60968L13.5051 2.41968C13.3914 2.14735 13.1998 1.91473 12.9542 1.75111C12.7086 1.58749 12.4202 1.50018 12.1251 1.50018C11.83 1.50018 11.5415 1.58749 11.2959 1.75111C11.0504 1.91473 10.8587 2.14735 10.7451 2.41968L8.56913 7.60968L2.99476 8.0925C2.70042 8.11723 2.41993 8.22832 2.18847 8.41182C1.95701 8.59533 1.78488 8.84309 1.69367 9.12404C1.60246 9.40498 1.59622 9.7066 1.67575 9.99107C1.75527 10.2755 1.91702 10.5302 2.14069 10.7231L6.36976 14.4187L5.10226 19.9069C5.03523 20.1941 5.05436 20.4946 5.15724 20.771C5.26012 21.0474 5.44219 21.2874 5.68069 21.4608C5.91919 21.6343 6.20353 21.7336 6.49817 21.7464C6.79281 21.7591 7.08467 21.6847 7.33726 21.5325L12.1185 18.6262L16.9101 21.5325C17.1627 21.6847 17.4545 21.7591 17.7492 21.7464C18.0438 21.7336 18.3281 21.6343 18.5666 21.4608C18.8051 21.2874 18.9872 21.0474 19.0901 20.771C19.193 20.4946 19.2121 20.1941 19.1451 19.9069L17.8785 14.4131L22.1066 10.7231C22.3303 10.5295 22.4917 10.2742 22.5706 9.98908C22.6495 9.704 22.6424 9.40196 22.5501 9.12093ZM21.1232 9.58968L16.8951 13.2797C16.6893 13.4587 16.5362 13.6904 16.4523 13.9499C16.3684 14.2094 16.3568 14.4869 16.4188 14.7525L17.6891 20.25L12.9013 17.3437C12.6677 17.2015 12.3995 17.1262 12.126 17.1262C11.8525 17.1262 11.5843 17.2015 11.3507 17.3437L6.56944 20.25L7.83132 14.7562C7.89334 14.4906 7.88176 14.2132 7.79785 13.9537C7.71393 13.6942 7.56085 13.4624 7.35507 13.2834L3.12507 9.59531C3.12473 9.59251 3.12473 9.58967 3.12507 9.58687L8.69757 9.105C8.96963 9.08102 9.22999 8.98321 9.45055 8.82213C9.67111 8.66104 9.8435 8.4428 9.94913 8.19093L12.1251 3.0075L14.3001 8.19093C14.4057 8.4428 14.5781 8.66104 14.7987 8.82213C15.0192 8.98321 15.2796 9.08102 15.5516 9.105L21.1251 9.58687C21.1251 9.58687 21.1251 9.5925 21.1251 9.59343L21.1232 9.58968Z" fill="black"/>
</svg>
