<svg width="25" height="25" viewBox="0 0 25 25" fill="none" xmlns="http://www.w3.org/2000/svg">
<path d="M11.5725 0.280094C9.21255 0.532184 6.98035 1.47842 5.15818 2.99914C3.33601 4.51987 2.0057 6.54678 1.33549 8.82356C0.66528 11.1003 0.685262 13.5247 1.39291 15.7902C2.10056 18.0556 3.4641 20.0603 5.31109 21.5508C7.15808 23.0412 9.40557 23.9506 11.7694 24.1637C14.1331 24.3769 16.507 23.8843 18.5909 22.7483C20.6747 21.6123 22.3749 19.8838 23.4764 17.7815C24.5779 15.6793 25.0313 13.2976 24.7792 10.9376C24.4379 7.7744 22.8557 4.87577 20.3798 2.87774C17.9039 0.879713 14.7364 -0.054499 11.5725 0.280094ZM13.9256 22.3086C11.9287 22.5219 9.91343 22.1383 8.13457 21.2062C6.35572 20.2742 4.8932 18.8356 3.93196 17.0723C2.97071 15.3091 2.55392 13.3004 2.73428 11.3003C2.91465 9.30015 3.68407 7.39843 4.94524 5.83559C6.20642 4.27275 7.90271 3.11899 9.8196 2.52021C11.7365 1.92143 13.7879 1.90452 15.7144 2.47162C17.6409 3.03872 19.356 4.16437 20.6428 5.7062C21.9295 7.24804 22.7302 9.13683 22.9435 11.1337C23.2264 13.8108 22.4358 16.4909 20.7452 18.5858C19.0546 20.6808 16.6021 22.0196 13.9256 22.3086ZM17.4907 14.7727C17.5851 14.8489 17.6636 14.9429 17.7216 15.0494C17.7797 15.1559 17.8162 15.2727 17.8291 15.3933C17.8419 15.5139 17.8309 15.6359 17.7967 15.7523C17.7624 15.8686 17.7056 15.9771 17.6294 16.0715C17.5533 16.1658 17.4593 16.2443 17.3528 16.3024C17.2463 16.3604 17.1294 16.3969 17.0088 16.4098C16.8882 16.4227 16.7662 16.4117 16.6499 16.3774C16.5335 16.3432 16.4251 16.2864 16.3307 16.2102L9.938 11.0504L10.2896 14.3421C10.3156 14.5855 10.2439 14.8293 10.0901 15.0198C9.93637 15.2103 9.71324 15.332 9.46981 15.358C9.22638 15.384 8.98259 15.3122 8.79207 15.1585C8.60155 15.0047 8.47991 14.7816 8.45391 14.5381L7.86564 9.03102C7.83963 8.78759 7.9114 8.5438 8.06514 8.35328C8.21889 8.16276 8.44202 8.04112 8.68545 8.01512L14.1926 7.42684C14.436 7.40084 14.6798 7.4726 14.8703 7.62635C15.0608 7.78009 15.1825 8.00322 15.2085 8.24665C15.2345 8.49008 15.1627 8.73387 15.009 8.92439C14.8552 9.11491 14.6321 9.23655 14.3887 9.26255L11.097 9.61417L17.4907 14.7727Z" fill="#211A13"/>
</svg>
